<svg width="17" height="21" viewBox="0 0 17 21" fill="none" xmlns="http://www.w3.org/2000/svg">
<path d="M5.07355 3.07358H3.07355C1.96898 3.07358 1.07355 3.96901 1.07355 5.07358V17.0736C1.07355 18.1781 1.96898 19.0736 3.07355 19.0736H13.0735C14.1781 19.0736 15.0735 18.1781 15.0735 17.0736V5.07358C15.0735 3.96901 14.1781 3.07358 13.0735 3.07358H11.0735M5.07355 3.07358C5.07355 4.17815 5.96898 5.07358 7.07355 5.07358H9.07355C10.1781 5.07358 11.0735 4.17815 11.0735 3.07358M5.07355 3.07358C5.07355 1.96901 5.96898 1.07358 7.07355 1.07358H9.07355C10.1781 1.07358 11.0735 1.96901 11.0735 3.07358M8.07355 10.0736H11.0735M8.07355 14.0736H11.0735M5.07355 10.0736H5.08355M5.07355 14.0736H5.08355" stroke="#3B82F6" stroke-width="2.14714" stroke-linecap="round"/>
</svg>
