<svg width="30" height="30" viewBox="0 0 30 30" fill="none" xmlns="http://www.w3.org/2000/svg">
<path d="M18.5 20.8333H24.3334L22.6943 19.1942C22.2497 18.7497 22 18.1468 22 17.5182V13.8333C22 10.7855 20.0521 8.1926 17.3334 7.23165V6.83333C17.3334 5.54467 16.2887 4.5 15 4.5C13.7114 4.5 12.6667 5.54467 12.6667 6.83333V7.23165C9.94791 8.1926 8.00002 10.7855 8.00002 13.8333V17.5182C8.00002 18.1468 7.75029 18.7497 7.30578 19.1942L5.66669 20.8333H11.5M18.5 20.8333V22C18.5 23.933 16.933 25.5 15 25.5C13.067 25.5 11.5 23.933 11.5 22V20.8333M18.5 20.8333H11.5" stroke="white" stroke-width="1.27" stroke-linecap="round" stroke-linejoin="round"/>
</svg>
