<svg width="20" height="20" viewBox="0 0 20 20" fill="none" xmlns="http://www.w3.org/2000/svg">
<path d="M7.66665 4.55556H6.1111C5.25199 4.55556 4.55554 5.252 4.55554 6.11111V15.4444C4.55554 16.3036 5.25199 17 6.1111 17H13.8889C14.748 17 15.4444 16.3036 15.4444 15.4444V6.11111C15.4444 5.252 14.748 4.55556 13.8889 4.55556H12.3333M7.66665 4.55556C7.66665 5.41467 8.3631 6.11111 9.22221 6.11111H10.7778C11.6369 6.11111 12.3333 5.41467 12.3333 4.55556M7.66665 4.55556C7.66665 3.69645 8.3631 3 9.22221 3H10.7778C11.6369 3 12.3333 3.69645 12.3333 4.55556M9.99999 10H12.3333M9.99999 13.1111H12.3333M7.66665 10H7.67443M7.66665 13.1111H7.67443" stroke="#838392" stroke-width="1.67" stroke-linecap="round"/>
</svg>
