<svg width="18" height="18" viewBox="0 0 18 18" fill="none" xmlns="http://www.w3.org/2000/svg">
<path d="M3.75 3.74999C3.74992 3.48606 3.81948 3.22678 3.95166 2.99833C4.08384 2.76988 4.27396 2.58035 4.50281 2.44888C4.73167 2.31741 4.99116 2.24865 5.25509 2.24955C5.51902 2.25045 5.77804 2.32097 6.006 2.45399L15.0037 7.70249C15.2308 7.83425 15.4193 8.0233 15.5505 8.25074C15.6816 8.47818 15.7507 8.73606 15.7509 8.99859C15.7512 9.26112 15.6825 9.51911 15.5518 9.74679C15.421 9.97446 15.2328 10.1638 15.006 10.296L6.006 15.546C5.77804 15.679 5.51902 15.7495 5.25509 15.7504C4.99116 15.7513 4.73167 15.6826 4.50281 15.5511C4.27396 15.4196 4.08384 15.2301 3.95166 15.0016C3.81948 14.7732 3.74992 14.5139 3.75 14.25V3.74999Z" stroke="white" stroke-linecap="round" stroke-linejoin="round"/>
</svg>
